<?xml version="1.0" standalone="no"?>
<!DOCTYPE svg PUBLIC "-//W3C//DTD SVG 20010904//EN"
 "http://www.w3.org/TR/2001/REC-SVG-20010904/DTD/svg10.dtd">
<svg version="1.0" xmlns="http://www.w3.org/2000/svg"
 width="512.000000pt" height="512.000000pt" viewBox="0 0 512.000000 512.000000"
 preserveAspectRatio="xMidYMid meet">

<g transform="translate(0.000000,512.000000) scale(0.100000,-0.100000)"
fill="#000000" stroke="none">
<path d="M2365 4830 c-40 -4 41 -7 185 -7 161 0 229 3 185 7 -85 9 -274 9
-370 0z"/>
<path d="M2170 4800 c-13 -9 -13 -10 0 -10 8 0 22 5 30 10 13 9 13 10 0 10 -8
0 -22 -5 -30 -10z"/>
<path d="M2905 4800 c11 -5 27 -9 35 -9 13 -1 13 0 0 9 -8 5 -24 9 -35 9 l-20
0 20 -9z"/>
<path d="M2020 4770 c-8 -5 -10 -10 -5 -10 6 0 17 5 25 10 8 5 11 10 5 10 -5
0 -17 -5 -25 -10z"/>
<path d="M3070 4770 c8 -5 24 -10 34 -10 26 0 18 6 -19 14 -22 5 -26 4 -15 -4z"/>
<path d="M3175 4750 c-3 -5 1 -10 10 -10 9 0 13 5 10 10 -3 6 -8 10 -10 10 -2
0 -7 -4 -10 -10z"/>
<path d="M3350 4690 c0 -5 7 -10 16 -10 8 0 12 5 9 10 -3 6 -10 10 -16 10 -5
0 -9 -4 -9 -10z"/>
<path d="M2415 4640 c-200 -16 -512 -86 -615 -140 -9 -4 -30 -11 -48 -15 -18
-3 -32 -11 -32 -16 0 -5 -5 -9 -11 -9 -15 0 -162 -70 -169 -80 -3 -4 -15 -10
-27 -14 -13 -4 -23 -11 -23 -16 0 -4 -8 -10 -17 -14 -25 -8 -163 -103 -183
-126 -3 -3 -29 -23 -57 -45 -29 -21 -53 -46 -53 -55 0 -14 95 -105 110 -105 4
0 24 15 46 33 65 54 173 132 183 132 5 0 11 4 13 9 9 24 318 181 357 181 10 0
26 7 37 15 10 8 30 15 44 15 14 0 34 7 44 15 11 8 36 15 55 15 20 1 47 7 61
15 14 8 48 15 75 15 28 0 68 7 90 15 30 11 95 14 270 14 175 0 240 -3 270 -14
22 -8 63 -15 91 -15 28 0 59 -6 70 -15 10 -8 35 -15 54 -15 19 0 48 -7 64 -15
15 -8 38 -15 50 -15 11 0 30 -7 40 -15 11 -8 28 -15 38 -15 10 0 26 -4 36 -10
9 -5 61 -29 115 -54 54 -25 118 -59 142 -76 24 -16 46 -30 50 -30 3 0 11 -5
18 -10 7 -6 50 -38 97 -72 47 -34 98 -73 114 -87 40 -35 175 -170 207 -207 47
-55 149 -193 149 -203 0 -5 4 -11 8 -13 11 -4 72 -108 116 -198 21 -41 44 -88
52 -103 8 -16 14 -36 14 -46 0 -9 7 -26 15 -37 8 -10 15 -30 15 -44 0 -14 7
-34 15 -44 8 -11 15 -36 15 -55 1 -20 7 -47 15 -61 8 -14 15 -45 15 -70 0 -25
7 -63 15 -85 20 -58 20 -532 0 -590 -8 -22 -15 -60 -15 -85 0 -25 -7 -56 -15
-70 -8 -14 -14 -41 -15 -61 0 -19 -7 -44 -15 -55 -8 -10 -15 -30 -15 -44 0
-14 -7 -34 -15 -44 -8 -11 -15 -28 -15 -38 0 -10 -4 -26 -9 -36 -6 -9 -25 -48
-43 -87 -37 -79 -118 -218 -130 -223 -4 -2 -8 -10 -8 -17 0 -8 -6 -20 -13 -27
-7 -7 -42 -51 -77 -98 -56 -75 -201 -228 -270 -286 -61 -50 -190 -144 -199
-144 -5 0 -11 -4 -13 -8 -10 -24 -319 -182 -356 -182 -10 0 -27 -7 -38 -15
-10 -8 -30 -15 -44 -15 -14 0 -34 -7 -44 -15 -11 -8 -36 -15 -55 -15 -20 -1
-47 -7 -61 -15 -14 -8 -48 -14 -76 -15 -28 0 -68 -7 -87 -15 -52 -22 -485 -22
-547 0 -23 8 -62 15 -87 15 -24 0 -54 5 -66 12 -12 6 -42 15 -67 19 -25 4 -61
12 -80 19 -162 59 -187 69 -283 116 -91 46 -244 142 -287 181 -14 13 -28 23
-31 23 -3 0 -22 13 -40 30 -19 16 -41 30 -49 30 -16 0 -110 -89 -110 -104 0
-19 262 -216 286 -216 8 0 14 -4 14 -9 0 -11 259 -141 282 -141 9 0 20 -4 23
-10 3 -5 13 -10 22 -10 8 0 29 -6 46 -14 172 -77 546 -133 797 -120 198 11
492 69 607 120 17 8 35 14 41 14 5 0 23 7 38 15 16 8 37 15 47 15 9 0 17 5 17
10 0 6 6 10 14 10 15 0 157 69 166 80 3 4 12 10 20 14 36 17 161 99 180 117 8
8 38 30 65 49 71 48 290 270 361 365 63 84 124 173 124 181 0 2 14 23 30 46
17 22 30 47 30 55 0 7 5 13 10 13 6 0 10 5 10 11 0 6 16 45 36 87 49 106 49
107 79 197 114 346 142 678 85 1030 -18 110 -68 305 -89 345 -5 9 -12 31 -16
50 -4 19 -11 41 -16 50 -4 8 -31 65 -60 125 -28 61 -55 112 -59 115 -3 3 -10
12 -14 20 -17 36 -99 161 -117 180 -8 8 -30 38 -49 65 -97 141 -435 434 -595
515 -11 6 -38 21 -60 35 -22 13 -48 24 -57 25 -10 0 -18 5 -18 10 0 6 -5 10
-11 10 -9 0 -43 14 -124 50 -39 17 -211 68 -300 89 -214 49 -419 66 -620 51z"/>
<path d="M3495 4630 c3 -5 11 -10 16 -10 6 0 7 5 4 10 -3 6 -11 10 -16 10 -6
0 -7 -4 -4 -10z"/>
<path d="M3550 4606 c0 -2 7 -7 16 -10 8 -3 12 -2 9 4 -6 10 -25 14 -25 6z"/>
<path d="M3650 4550 c0 -6 7 -10 15 -10 8 0 15 2 15 4 0 2 -7 6 -15 10 -8 3
-15 1 -15 -4z"/>
<path d="M1390 4520 c-13 -8 -12 -10 3 -10 9 0 17 5 17 10 0 12 -1 12 -20 0z"/>
<path d="M3690 4520 c0 -5 10 -10 23 -10 18 0 19 2 7 10 -19 13 -30 13 -30 0z"/>
<path d="M3740 4495 c0 -8 7 -15 16 -15 14 0 14 3 4 15 -7 8 -14 15 -16 15 -2
0 -4 -7 -4 -15z"/>
<path d="M3790 4465 c0 -8 7 -15 16 -15 14 0 14 3 4 15 -7 8 -14 15 -16 15 -2
0 -4 -7 -4 -15z"/>
<path d="M1305 4460 c-3 -5 -1 -10 4 -10 6 0 11 5 11 10 0 6 -2 10 -4 10 -3 0
-8 -4 -11 -10z"/>
<path d="M3830 4440 c0 -5 5 -10 11 -10 5 0 7 5 4 10 -3 6 -8 10 -11 10 -2 0
-4 -4 -4 -10z"/>
<path d="M3880 4400 c0 -5 5 -10 11 -10 5 0 7 5 4 10 -3 6 -8 10 -11 10 -2 0
-4 -4 -4 -10z"/>
<path d="M3910 4380 c0 -5 5 -10 11 -10 5 0 7 5 4 10 -3 6 -8 10 -11 10 -2 0
-4 -4 -4 -10z"/>
<path d="M3960 4351 c0 -6 4 -13 10 -16 6 -3 7 1 4 9 -7 18 -14 21 -14 7z"/>
<path d="M980 4205 c-11 -13 -10 -14 4 -9 9 3 16 10 16 15 0 13 -6 11 -20 -6z"/>
<path d="M4110 4211 c0 -5 5 -13 10 -16 6 -3 10 -2 10 4 0 5 -4 13 -10 16 -5
3 -10 2 -10 -4z"/>
<path d="M910 4135 c-7 -9 -8 -15 -2 -15 5 0 12 7 16 15 3 8 4 15 2 15 -2 0
-9 -7 -16 -15z"/>
<path d="M4220 4090 c0 -5 5 -10 11 -10 5 0 7 5 4 10 -3 6 -8 10 -11 10 -2 0
-4 -4 -4 -10z"/>
<path d="M4250 4060 c0 -5 5 -10 11 -10 5 0 7 5 4 10 -3 6 -8 10 -11 10 -2 0
-4 -4 -4 -10z"/>
<path d="M4340 3950 c0 -5 5 -10 11 -10 5 0 7 5 4 10 -3 6 -8 10 -11 10 -2 0
-4 -4 -4 -10z"/>
<path d="M942 3873 c-64 -83 -192 -271 -192 -282 0 -5 -7 -14 -15 -21 -8 -7
-15 -19 -15 -27 0 -8 -7 -21 -15 -29 -8 -9 -15 -24 -15 -35 0 -10 -4 -19 -10
-19 -5 0 -10 -6 -10 -12 0 -7 -7 -26 -16 -43 -9 -16 -25 -57 -36 -90 -10 -33
-24 -69 -29 -80 -17 -38 -76 -290 -93 -395 -21 -137 -22 -427 -1 -554 27 -161
73 -356 94 -396 5 -9 12 -31 16 -50 4 -19 11 -41 15 -50 28 -56 50 -109 50
-119 0 -6 5 -11 10 -11 6 0 10 -8 10 -17 1 -10 12 -36 25 -58 14 -22 30 -52
36 -67 6 -16 14 -28 19 -28 4 0 11 -8 14 -17 12 -32 104 -164 162 -233 12 -14
33 -38 47 -55 l26 -30 55 55 c31 30 56 60 56 65 0 6 -8 17 -18 26 -9 8 -27 28
-39 44 -85 111 -123 166 -123 175 0 5 -4 10 -10 10 -5 0 -12 11 -16 25 -3 14
-10 25 -15 25 -10 0 -145 275 -152 310 -6 28 -22 78 -43 128 -8 18 -14 47 -14
65 -1 18 -7 43 -15 57 -8 14 -15 50 -15 80 0 30 -7 73 -15 95 -20 57 -20 433
0 490 8 22 15 65 15 95 0 30 7 66 15 80 8 14 14 40 15 58 0 18 5 43 12 55 6
12 15 35 19 52 7 27 20 67 39 120 20 53 133 275 140 275 4 0 11 11 14 25 4 14
11 25 16 25 6 0 10 5 10 11 0 11 107 156 148 201 l25 27 -49 55 c-27 30 -56
55 -65 55 -8 1 -39 -29 -67 -66z"/>
<path d="M4360 3921 c0 -5 5 -13 10 -16 6 -3 10 -2 10 4 0 5 -4 13 -10 16 -5
3 -10 2 -10 -4z"/>
<path d="M4390 3891 c0 -5 7 -16 15 -25 8 -8 15 -22 15 -30 0 -9 7 -16 16 -16
15 0 14 3 -2 28 -23 35 -44 56 -44 43z"/>
<path d="M656 3803 c-6 -14 -5 -15 5 -6 7 7 10 15 7 18 -3 3 -9 -2 -12 -12z"/>
<path d="M2200 3791 c-8 -5 -42 -17 -75 -27 -33 -10 -78 -29 -100 -41 -22 -13
-46 -25 -52 -28 -7 -3 -19 -7 -25 -10 -118 -48 -369 -285 -450 -424 -60 -105
-128 -252 -128 -280 0 -10 -7 -32 -15 -47 -8 -16 -15 -39 -15 -52 0 -13 -4
-31 -10 -41 -16 -30 -28 -260 -19 -381 8 -108 16 -153 41 -225 5 -16 14 -46
18 -65 12 -51 35 -109 48 -122 7 -7 12 -20 12 -29 0 -10 4 -20 9 -24 5 -3 23
-32 39 -65 34 -68 148 -210 168 -210 13 0 16 8 27 70 3 14 10 41 17 60 7 19
17 49 22 65 6 17 13 46 15 65 3 19 9 40 14 46 5 6 13 31 19 55 5 24 16 68 25
96 9 29 22 74 30 100 7 27 26 86 40 133 38 120 55 179 66 225 5 22 13 49 18
60 10 22 27 85 42 155 5 24 14 49 19 54 6 6 10 24 10 41 1 16 7 41 15 55 8 14
14 36 15 50 0 14 7 38 15 54 8 15 15 39 15 53 0 13 5 34 12 46 6 12 15 38 19
57 4 19 17 67 29 105 12 39 25 84 30 100 4 17 24 82 43 145 19 63 37 124 40
135 2 11 8 28 12 38 6 13 2 17 -16 16 -13 0 -31 -4 -39 -8z"/>
<path d="M2900 3792 c0 -6 19 -70 96 -327 8 -27 19 -66 23 -85 4 -19 13 -45
19 -57 7 -12 12 -34 12 -48 0 -14 5 -36 12 -48 6 -12 15 -40 19 -62 4 -22 12
-53 17 -70 6 -16 18 -57 27 -90 9 -33 23 -80 31 -105 8 -25 14 -54 14 -66 0
-11 3 -24 7 -28 5 -4 13 -29 20 -54 6 -26 18 -69 26 -97 8 -27 36 -120 61
-205 25 -85 53 -180 62 -210 9 -30 22 -73 30 -95 8 -23 14 -50 14 -60 0 -11 7
-33 15 -49 8 -15 15 -40 15 -55 1 -14 7 -37 15 -51 8 -14 15 -38 15 -55 0 -16
7 -41 15 -55 8 -14 14 -40 15 -58 0 -48 26 -53 62 -11 71 84 118 149 118 163
0 8 4 17 9 21 6 3 21 29 36 58 14 28 29 59 34 67 11 20 31 77 41 120 5 19 17
60 26 90 43 142 45 431 4 605 -7 28 -16 54 -21 60 -5 5 -9 20 -9 35 0 14 -7
38 -15 54 -8 15 -15 36 -15 46 0 10 -7 23 -15 30 -8 7 -15 21 -15 31 0 10 -4
21 -10 24 -5 3 -21 30 -35 58 -31 63 -45 85 -68 111 -11 12 -45 53 -77 91 -33
39 -72 80 -87 91 -15 12 -53 44 -84 72 -31 28 -88 68 -128 88 -39 20 -74 40
-77 45 -3 5 -12 9 -21 9 -9 0 -24 6 -32 13 -9 7 -43 22 -76 31 -33 10 -70 23
-83 27 -28 11 -42 11 -42 1z"/>
<path d="M4450 3785 c0 -8 7 -15 16 -15 14 0 14 3 4 15 -7 8 -14 15 -16 15 -2
0 -4 -7 -4 -15z"/>
<path d="M626 3761 c-4 -7 -5 -15 -2 -18 9 -9 19 4 14 18 -4 11 -6 11 -12 0z"/>
<path d="M4482 3744 c3 -17 21 -21 26 -6 1 5 -4 12 -13 16 -11 4 -15 1 -13
-10z"/>
<path d="M595 3710 c-3 -5 -1 -10 4 -10 6 0 11 5 11 10 0 6 -2 10 -4 10 -3 0
-8 -4 -11 -10z"/>
<path d="M4510 3703 c0 -13 5 -23 10 -23 13 0 13 11 0 30 -8 12 -10 11 -10 -7z"/>
<path d="M4540 3642 c0 -13 4 -21 9 -18 5 4 12 -7 16 -24 4 -16 10 -30 15 -30
4 0 11 -12 14 -26 4 -15 9 -24 12 -21 9 8 -19 80 -43 112 -22 29 -22 29 -23 7z"/>
<path d="M455 3440 c-3 -5 -1 -10 4 -10 6 0 11 5 11 10 0 6 -2 10 -4 10 -3 0
-8 -4 -11 -10z"/>
<path d="M4650 3411 c0 -5 5 -13 10 -16 6 -3 10 -2 10 4 0 5 -4 13 -10 16 -5
3 -10 2 -10 -4z"/>
<path d="M426 3353 c-6 -14 -5 -15 5 -6 7 7 10 15 7 18 -3 3 -9 -2 -12 -12z"/>
<path d="M4680 3325 c0 -8 4 -15 10 -15 5 0 7 7 4 15 -4 8 -8 15 -10 15 -2 0
-4 -7 -4 -15z"/>
<path d="M2541 3285 c-11 -14 -23 -40 -26 -58 -4 -18 -13 -52 -20 -77 -15 -51
-42 -148 -55 -200 -38 -147 -89 -334 -115 -420 -22 -74 -26 -100 -15 -100 5 0
125 -1 265 -1 140 0 260 1 266 1 12 0 6 39 -15 105 -13 40 -35 116 -61 210 -7
28 -21 74 -29 104 -9 29 -16 64 -16 77 0 12 -4 26 -10 29 -5 3 -12 28 -16 56
-4 27 -11 52 -15 55 -5 3 -9 14 -9 24 0 11 -6 39 -14 62 -8 24 -17 59 -20 79
-7 38 -38 79 -61 79 -7 0 -23 -11 -34 -25z"/>
<path d="M4710 3235 c0 -8 5 -15 10 -15 6 0 10 7 10 15 0 8 -4 15 -10 15 -5 0
-10 -7 -10 -15z"/>
<path d="M4740 3126 c0 -22 3 -27 11 -19 8 8 8 16 0 30 -9 16 -10 14 -11 -11z"/>
<path d="M4762 3030 c0 -38 15 -95 18 -70 1 8 1 20 0 25 -2 6 -6 26 -10 45
l-8 35 0 -35z"/>
<path d="M316 2875 c-9 -26 -7 -32 5 -12 6 10 9 21 6 23 -2 3 -7 -2 -11 -11z"/>
<path d="M4791 2810 c0 -30 2 -80 6 -110 5 -45 8 -50 14 -30 10 37 10 134 0
146 -5 5 -11 18 -14 29 -3 11 -5 -5 -6 -35z"/>
<path d="M293 2570 c0 -47 2 -66 4 -42 2 23 2 61 0 85 -2 23 -4 4 -4 -43z"/>
<path d="M4797 2460 c-4 -30 -6 -89 -5 -130 1 -41 3 -59 5 -40 3 19 9 39 14
45 10 10 10 104 0 150 -6 27 -8 24 -14 -25z"/>
<path d="M310 2300 c0 -8 5 -22 10 -30 9 -13 10 -13 10 0 0 8 -5 22 -10 30 -9
13 -10 13 -10 0z"/>
<path d="M4766 2180 c-3 -18 -5 -51 -5 -74 l1 -41 8 47 c5 26 11 52 15 57 3 6
2 18 -3 27 -7 13 -10 10 -16 -16z"/>
<path d="M341 2115 c1 -19 18 -51 18 -35 0 8 -4 22 -9 30 -5 8 -9 11 -9 5z"/>
<path d="M4740 2030 c0 -18 4 -29 10 -25 6 3 10 15 10 25 0 10 -4 22 -10 25
-6 4 -10 -7 -10 -25z"/>
<path d="M4710 1920 c0 -13 5 -20 13 -17 6 2 12 10 12 17 0 7 -6 15 -12 18 -8
2 -13 -5 -13 -18z"/>
<path d="M2184 1911 c-30 -5 -44 -21 -44 -51 0 -15 -7 -44 -15 -63 -8 -20 -15
-51 -15 -70 0 -18 -4 -37 -9 -42 -6 -6 -15 -37 -21 -70 -37 -201 -37 -215 -1
-215 10 0 32 -7 47 -15 16 -8 40 -15 54 -15 15 0 30 -4 36 -10 25 -25 201 -49
359 -49 139 0 227 10 305 33 30 10 71 21 90 26 37 9 95 28 119 40 27 12 36 37
23 62 -7 13 -16 43 -22 68 -5 25 -16 72 -25 105 -27 99 -46 178 -52 212 -3 18
-11 37 -17 42 -11 10 -766 21 -812 12z"/>
<path d="M4680 1829 c0 -11 5 -17 10 -14 6 3 10 13 10 21 0 8 -4 14 -10 14 -5
0 -10 -9 -10 -21z"/>
<path d="M4657 1764 c-4 -4 -7 -14 -7 -23 0 -11 3 -12 11 -4 6 6 10 16 7 23
-2 6 -7 8 -11 4z"/>
<path d="M4627 1683 c-4 -3 -7 -11 -7 -17 0 -6 5 -5 12 2 6 6 9 14 7 17 -3 3
-9 2 -12 -2z"/>
<path d="M4597 1634 c-4 -4 -7 -18 -7 -31 0 -14 -4 -21 -10 -18 -5 3 -10 -3
-10 -14 0 -11 -7 -26 -15 -35 -15 -15 -22 -61 -7 -52 4 2 15 22 25 43 10 21
25 51 33 67 14 27 7 56 -9 40z"/>
<path d="M566 1485 c4 -8 8 -15 10 -15 2 0 4 7 4 15 0 8 -4 15 -10 15 -5 0 -7
-7 -4 -15z"/>
<path d="M4510 1455 c0 -14 -5 -24 -12 -22 -6 1 -14 -6 -16 -15 -5 -27 21 -13
41 21 16 27 14 41 -5 41 -4 0 -8 -11 -8 -25z"/>
<path d="M590 1451 c0 -6 5 -13 10 -16 6 -3 10 1 10 9 0 9 -4 16 -10 16 -5 0
-10 -4 -10 -9z"/>
<path d="M620 1401 c0 -6 5 -13 10 -16 6 -3 10 1 10 9 0 9 -4 16 -10 16 -5 0
-10 -4 -10 -9z"/>
<path d="M4456 1383 c-3 -3 -6 -17 -6 -30 0 -14 -4 -21 -10 -18 -6 3 -13 -2
-17 -12 -3 -10 -12 -22 -20 -26 -7 -4 -13 -17 -13 -28 0 -11 -4 -17 -10 -14
-5 3 -12 -6 -16 -20 -3 -14 -10 -25 -15 -25 -5 0 -9 -7 -9 -15 0 -8 -7 -15
-15 -15 -8 0 -15 -6 -15 -13 0 -7 -13 -26 -30 -42 -16 -16 -30 -35 -30 -42 0
-7 -5 -12 -11 -10 -6 1 -14 -4 -16 -11 -8 -21 31 2 50 30 8 13 33 43 56 68 22
25 48 60 58 78 10 17 23 32 29 32 6 0 19 17 29 38 10 20 22 45 26 54 9 17 -3
33 -15 21z"/>
<path d="M656 1345 c4 -8 8 -15 10 -15 2 0 4 7 4 15 0 8 -4 15 -10 15 -5 0 -7
-7 -4 -15z"/>
<path d="M735 1230 c3 -5 8 -10 11 -10 2 0 4 5 4 10 0 6 -5 10 -11 10 -5 0 -7
-4 -4 -10z"/>
<path d="M860 1081 c0 -11 29 -35 35 -29 2 2 -4 12 -15 21 -11 9 -20 13 -20 8z"/>
<path d="M4137 979 c-38 -38 -64 -69 -58 -69 14 0 133 119 129 129 -2 4 -34
-23 -71 -60z"/>
<path d="M900 1028 c0 -7 28 -38 62 -68 34 -30 73 -67 86 -82 14 -16 32 -28
40 -28 9 0 0 15 -24 38 -21 20 -42 36 -46 34 -4 -1 -8 5 -8 13 0 8 -7 15 -15
15 -8 0 -15 7 -15 15 0 8 -7 15 -15 15 -8 0 -15 7 -15 15 0 8 -7 15 -15 15 -8
0 -14 5 -12 11 1 6 -4 14 -10 16 -7 3 -13 -1 -13 -9z"/>
<path d="M4007 855 c-26 -25 -52 -45 -57 -45 -6 0 -10 -4 -10 -10 0 -5 3 -10
8 -10 10 0 105 79 115 96 15 27 -8 14 -56 -31z"/>
<path d="M1105 830 c3 -5 11 -10 16 -10 6 0 7 5 4 10 -3 6 -11 10 -16 10 -6 0
-7 -4 -4 -10z"/>
<path d="M1190 770 c0 -5 5 -10 10 -10 6 0 10 5 10 10 0 6 -4 10 -10 10 -5 0
-10 -4 -10 -10z"/>
<path d="M3893 767 c-21 -21 -37 -33 -55 -40 -10 -3 -18 -11 -18 -17 0 -5 -9
-10 -20 -10 -11 0 -23 -7 -26 -15 -4 -8 -15 -15 -25 -15 -10 0 -19 -7 -19 -15
0 -8 1 -15 3 -15 13 0 82 41 113 67 22 18 50 41 64 52 17 14 20 20 10 20 -8 0
-20 -5 -27 -12z"/>
<path d="M1220 751 c0 -6 5 -13 10 -16 6 -3 10 1 10 9 0 9 -4 16 -10 16 -5 0
-10 -4 -10 -9z"/>
<path d="M1267 714 c3 -8 18 -21 34 -30 26 -13 29 -13 29 1 0 8 -9 15 -20 15
-11 0 -20 4 -20 9 0 5 -7 11 -14 14 -10 4 -13 1 -9 -9z"/>
<path d="M1350 666 c0 -2 7 -9 15 -16 12 -10 15 -10 15 4 0 9 -7 16 -15 16 -8
0 -15 -2 -15 -4z"/>
<path d="M1405 630 c3 -5 11 -10 16 -10 6 0 7 5 4 10 -3 6 -11 10 -16 10 -6 0
-7 -4 -4 -10z"/>
<path d="M3680 625 c0 -9 -9 -15 -25 -15 -14 0 -25 -4 -25 -10 0 -14 16 -12
50 5 32 17 40 35 15 35 -8 0 -15 -7 -15 -15z"/>
<path d="M1440 600 c19 -13 30 -13 30 0 0 6 -10 10 -22 10 -19 0 -20 -2 -8
-10z"/>
<path d="M1490 576 c0 -12 75 -46 89 -40 12 5 8 9 -16 16 -18 5 -33 13 -33 18
0 6 -9 10 -20 10 -11 0 -20 -2 -20 -4z"/>
<path d="M3566 565 c-3 -8 -17 -15 -31 -15 -15 0 -24 -4 -20 -10 3 -5 -2 -10
-13 -10 -22 0 -34 -9 -27 -21 5 -7 145 56 145 66 0 12 -49 3 -54 -10z"/>
<path d="M1600 520 c8 -5 22 -9 30 -9 10 0 8 3 -5 9 -27 12 -43 12 -25 0z"/>
<path d="M3415 490 c-8 -13 5 -13 25 0 13 8 13 10 -2 10 -9 0 -20 -4 -23 -10z"/>
<path d="M1745 460 c3 -5 10 -10 16 -10 5 0 9 5 9 10 0 6 -7 10 -16 10 -8 0
-12 -4 -9 -10z"/>
<path d="M3335 460 c-3 -5 1 -10 9 -10 8 0 18 5 21 10 3 6 -1 10 -9 10 -8 0
-18 -4 -21 -10z"/>
<path d="M1825 430 c3 -5 10 -10 16 -10 5 0 9 5 9 10 0 6 -7 10 -16 10 -8 0
-12 -4 -9 -10z"/>
<path d="M3250 430 c0 -13 11 -13 30 0 12 8 11 10 -7 10 -13 0 -23 -4 -23 -10z"/>
<path d="M1920 400 c0 -5 9 -10 20 -10 11 0 20 5 20 10 0 6 -9 10 -20 10 -11
0 -20 -4 -20 -10z"/>
<path d="M3150 400 c0 -5 9 -10 20 -10 11 0 20 5 20 10 0 6 -9 10 -20 10 -11
0 -20 -4 -20 -10z"/>
<path d="M2038 368 c17 -8 26 -8 34 0 9 9 4 12 -22 11 -33 0 -34 -1 -12 -11z"/>
<path d="M3030 370 c0 -5 9 -10 19 -10 11 0 23 5 26 10 4 6 -5 10 -19 10 -14
0 -26 -4 -26 -10z"/>
<path d="M2160 350 c30 -4 60 -9 65 -10 6 -1 17 -1 25 0 31 4 -37 18 -90 18
l-55 -1 55 -7z"/>
<path d="M2865 350 c-14 -6 -16 -9 -5 -10 8 -2 20 -1 25 0 6 1 35 6 65 10 l55
7 -60 1 c-33 0 -69 -3 -80 -8z"/>
<path d="M2403 323 c26 -2 45 -8 42 -14 -4 -5 40 -9 110 -9 70 0 114 4 110 9
-3 6 14 12 37 14 24 2 -45 3 -152 3 -107 0 -174 -1 -147 -3z"/>
</g>
</svg>
